<svg xmlns="http://www.w3.org/2000/svg" xmlns:xlink="http://www.w3.org/1999/xlink" width="403" height="417"><g transform="scale(2.37059 2.36932)"><svg xmlns="http://www.w3.org/2000/svg" width="170" height="176" fill="none"><g clip-path="url(#clip0_605_62413)"><path fill="#33F28B" d="M83.995 40.965s-47.31-11.6-53.22 42.9c0 0 .09 5.26-13.91 13.38-14 8.12-14.84 20.65-15.92 27.89-1.08 7.24 4.59 28.28 16.75 40.26 5.83 5.74 16.66 8.27 26.37 9.35 14.01 1.56 28.2-1.44 40.27-8.72 3.65-2.2 7.45-4.83 11.12-7.93 3.2-2.71 6.9-4.77 10.87-6.11 7.2-2.43 18.79-5.86 28.75-6.53 4.29-.29 7.63-.48 10.23-.6 6.69-.31 12.89-3.63 16.74-9.11 4.56-6.49 8.88-16.14 6.42-27.69-4.61-21.67-13.61-27.97-14.61-37.82-.63-6.18 3.86-17.93 7.3-25.83 3.58-8.25 4.01-17.61.79-26-2.08-5.4-5.61-10.38-11.62-12.24-15.46-4.78-34.46-6.78-47 15.81-11.13 20.05-19.32 19.01-19.32 19.01l-.01-.02z"/><path fill="#fff" d="M29.095 120.605c1.17 3.27 3.78 7.47 9.62 10.7-3.03 1.12-7.63 4.17-10.06 12.5-1.27-4.42-4.08-10.68-10.08-12.76a27.36 27.36 0 003.99-2.39c3.12-2.26 5.32-4.99 6.53-8.05zm.08-5.17v0zm0 .07c-.51 11.76-14.01 15.87-14.01 15.87 11.89.83 13.46 17.2 13.46 17.2 2.66-16.73 13.07-16.91 13.07-16.91-12.55-5.46-12.56-15.24-12.53-16.16h.01zM141.395 28.965c1.03 2.63 3.17 5.87 7.63 8.43-2.48 1.01-5.98 3.54-7.98 9.82-.26-.86-.6-1.79-1.02-2.73-1.65-3.68-4.03-6.16-6.97-7.31.91-.46 1.95-1.07 3-1.83 2.49-1.81 4.29-3.97 5.34-6.39m.07-4.77v0zm0 .06c-.43 9.8-11.67 13.22-11.67 13.22 9.9.69 11.21 14.33 11.21 14.33 2.21-13.93 10.89-14.08 10.89-14.08-10.45-4.55-10.46-12.7-10.44-13.46l.01-.01z"/><path fill="#000" d="M122.555 138.115s-.59 9.5 11.33 14.69c0 0-9.42.16-11.83 15.3 0 0-1.42-14.81-12.18-15.56 0 0 12.26-3.73 12.68-14.42v-.01zM153.365 93.865c7.17 0 13 5.83 13 13s-5.83 13-13 13-13-5.83-13-13 5.83-13 13-13zm0-1c-7.73 0-14 6.27-14 14s6.27 14 14 14 14-6.27 14-14-6.27-14-14-14z"/><path fill="#33F28B" d="M161.865 100.365a5 5 0 100-10 5 5 0 000 10z"/><path fill="#000" d="M161.865 90.865c2.48 0 4.5 2.02 4.5 4.5s-2.02 4.5-4.5 4.5-4.5-2.02-4.5-4.5 2.02-4.5 4.5-4.5zm0-1c-3.04 0-5.5 2.46-5.5 5.5s2.46 5.5 5.5 5.5 5.5-2.46 5.5-5.5-2.46-5.5-5.5-5.5zM151.865 1.865c6.34 0 11.5 5.16 11.5 11.5s-5.16 11.5-11.5 11.5-11.5-5.16-11.5-11.5 5.16-11.5 11.5-11.5zm0-1c-6.9 0-12.5 5.6-12.5 12.5s5.6 12.5 12.5 12.5 12.5-5.6 12.5-12.5-5.6-12.5-12.5-12.5z"/><path fill="#000" d="M140.165 20.865c5.523 0 10-4.477 10-10s-4.477-10-10-10-10 4.477-10 10 4.477 10 10 10z"/><path fill="#fff" d="M132.865 22.365a4 4 0 100-8 4 4 0 000 8z"/><path fill="#000" d="M132.865 14.865c1.93 0 3.5 1.57 3.5 3.5s-1.57 3.5-3.5 3.5-3.5-1.57-3.5-3.5 1.57-3.5 3.5-3.5zm0-1c-2.49 0-4.5 2.01-4.5 4.5s2.01 4.5 4.5 4.5 4.5-2.01 4.5-4.5-2.01-4.5-4.5-4.5zM32.345 152.195c2.19 0 4.11 1.48 4.67 3.61a4.83 4.83 0 01-3.45 5.9 4.833 4.833 0 01-5.9-3.45 4.83 4.83 0 013.45-5.9c.4-.11.82-.16 1.23-.16zm0-1a5.828 5.828 0 00-5.64 7.31 5.834 5.834 0 007.12 4.16 5.828 5.828 0 004.16-7.12 5.834 5.834 0 00-5.64-4.35z"/><path fill="#fff" d="M35.255 153.505c-.9 0-1.69-.61-1.92-1.48-.28-1.06.36-2.14 1.42-2.42.17-.04.34-.07.5-.07.9 0 1.69.61 1.92 1.48.28 1.06-.36 2.14-1.42 2.42-.17.04-.33.07-.5.07z"/><path fill="#000" d="M35.255 150.035a1.485 1.485 0 01-.01 2.97 1.485 1.485 0 01.01-2.97zm0-1a2.48 2.48 0 00-2.4 3.11c.29 1.12 1.3 1.85 2.4 1.85a2.48 2.48 0 002.4-3.11 2.474 2.474 0 00-2.4-1.85z"/><path fill="#fff" d="M40.605 102.325c7.61 0 14.27 5.15 16.21 12.52 1.14 4.33.52 8.85-1.74 12.71a16.7 16.7 0 01-10.22 7.76c-1.4.37-2.83.55-4.27.55-7.61 0-14.27-5.15-16.21-12.52-2.35-8.94 3.02-18.13 11.96-20.47 1.4-.37 2.83-.55 4.27-.55zm0-1c-1.49 0-3.01.19-4.52.59-9.49 2.49-15.17 12.2-12.68 21.69 2.09 7.98 9.29 13.26 17.17 13.26 1.49 0 3.01-.19 4.52-.59 9.49-2.49 15.17-12.2 12.68-21.69-2.09-7.98-9.29-13.26-17.17-13.26zM80.795 50.095c4.94 0 9.27 3.34 10.52 8.13 1.52 5.81-1.96 11.77-7.77 13.29-.91.24-1.84.36-2.77.36-4.94 0-9.27-3.34-10.52-8.13-1.52-5.81 1.96-11.77 7.77-13.29.91-.24 1.84-.36 2.77-.36zm0-1c-1 0-2.01.13-3.02.39-6.35 1.67-10.15 8.16-8.48 14.51 1.4 5.34 6.22 8.87 11.49 8.87 1 0 2.01-.13 3.02-.39 6.35-1.67 10.15-8.16 8.48-14.51-1.4-5.34-6.22-8.87-11.49-8.87z"/><path fill="#000" d="M63.775 53.345a3.59 3.59 0 100-7.18 3.59 3.59 0 000 7.18zM11.365 111.445a8.29 8.29 0 100-16.58 8.29 8.29 0 000 16.58zM155.865 48.365s4.5.5 4.5 35.5l-69.5-46.5-2-27 67 38z"/><path fill="#33F28B" stroke="#000" stroke-miterlimit="10" d="M88.365 20.995l-8.48 5.85 61.78 39.39c2.82-1.95 5.73-3.72 8.66-5.45v-.28l-61.96-39.51z"/><path fill="#33F28B" stroke="#000" stroke-miterlimit="10" d="M150.325 60.775c-2.93 1.73-5.84 3.5-8.66 5.45l.17.11v14.6c2.83-1.77 5.66-3.53 8.48-5.3v-14.86h.01z"/><path fill="#fff" stroke="#000" stroke-miterlimit="10" d="M141.835 80.855v56.01l8.48-5.75v-55.48c-2.83 1.74-5.66 3.48-8.48 5.21v.01z"/><path fill="#000" d="M141.245 82.235l-.11 13.54-.07-.04-.11 14.04-.1 11.89-.11 14.27-12.53-7.55v-.1l-12.2-7.35v-.65l-11.14-6.72v-.08l-12.15-7.32v-.07l-12.16-7.33.11-14.27.1-13.08.1-13.08.06.04-.58-13.51 4.8 2.55c-1.76-1.07-3.52-2.15-5.27-3.21v54.19l61.95 39.5v-55.27c-.2-.13-.4-.25-.6-.38l.01-.01z"/><path fill="#fff" stroke="#000" stroke-miterlimit="10" d="M128.935 88.205l12.13 7.31v.23l.07.04.11-13.54c-4.07-2.57-8.13-5.12-12.2-7.68l-.11 13.64z"/><path fill="#fff" stroke="#000" stroke-miterlimit="10" d="M128.935 88.205v.13l-.07-.04-.11 12.94 12.2 7.36-.01 1.18.11-14.03.01-.24-12.13-7.3z"/><path fill="#0339F8" stroke="#000" stroke-miterlimit="10" d="M128.755 101.235l-.01 1.1-.09 11.99 12.2 7.35.09-11.9.01-1.18-12.2-7.36z"/><path fill="#fff" stroke="#000" stroke-miterlimit="10" d="M128.645 115.415l-.11 13.08-.32-.2v.1l12.52 7.54.12-14.26-12.2-7.35-.01 1.09zM117.715 80.925v.42l11.15 6.72v.23l.07.04v-.13l.11-13.64c-3.72-2.33-7.43-4.65-11.15-6.97l-.11 13.38-.07-.04v-.01z"/><path fill="#0339F8" stroke="#000" stroke-miterlimit="10" d="M128.865 88.065l-11.15-6.72-.11 13.08 11.15 6.72-.01 1.19.01-1.1.11-12.94v-.23z"/><path fill="#fff" stroke="#000" stroke-miterlimit="10" d="M128.755 101.145l-11.15-6.72v.53l-.1 12.55 11.15 6.72-.01 1.19.01-1.09.09-11.99.01-1.19z"/><path fill="#fff" stroke="#000" stroke-miterlimit="10" d="M128.645 115.415l.01-1.19-11.15-6.72v.53l-.11 13.09-1.38-.83v.65l12.2 7.35.32.2.11-13.08z"/><path fill="#0339F8" stroke="#000" stroke-miterlimit="10" d="M117.715 80.695v.23l.07.04.11-13.38c-4.05-2.53-8.1-5.05-12.15-7.55l-.11 13.37 12.08 7.28v.01z"/><path fill="#fff" stroke="#000" stroke-miterlimit="10" d="M105.455 86.445l12.16 7.33-.01 1.18v-.53l.11-13.08v-.65l-12.08-7.29v.15l-.07-.04-.11 12.93z"/><path fill="#0339F8" stroke="#000" stroke-miterlimit="10" d="M117.605 94.955l.01-1.18-12.16-7.33v1.11l-.1 11.97 12.15 7.33v1.18-.53l.1-12.55z"/><path fill="#fff" stroke="#000" stroke-miterlimit="10" d="M117.505 108.035v-1.18l-12.15-7.33-.01 1.11-.1 13.08-.37-.22-.01.08 11.15 6.72 1.38.83.11-13.09zM105.565 73.285v.23l.07.04v-.15l.11-13.37c-4.05-2.51-8.11-5.01-12.16-7.5l-.11 13.46 12.09 7.29z"/><path fill="#0339F8" stroke="#000" stroke-miterlimit="10" d="M105.465 86.365l-.01 1.19v-1.11l.11-12.93v-.23l-12.09-7.29v.16l-.07-.04-.11 12.92 12.17 7.33z"/><path fill="#fff" stroke="#000" stroke-miterlimit="10" d="M105.455 87.555l.01-1.19-12.17-7.33-.01 1.12-.09 11.96 12.16 7.33-.01 1.19.01-1.11.1-11.97z"/><path fill="#0339F8" stroke="#000" stroke-miterlimit="10" d="M105.345 100.635l.01-1.19-12.16-7.33-.01 1.12-.11 13.08-.36-.22v.07l12.16 7.33.37.22.1-13.08z"/><path fill="#fff" stroke="#000" stroke-miterlimit="10" d="M93.405 65.885v.23l.07.04v-.16l.11-13.46c-2.81-1.72-5.62-3.42-8.42-5.13l-4.8-2.55.58 13.51 12.47 7.51-.01.01z"/><path fill="#0339F8" stroke="#000" stroke-miterlimit="10" d="M93.295 78.965l-.01 1.19.01-1.12.11-12.92v-.23l-12.47-7.51-.06-.04-.1 13.08 12.52 7.55z"/><path fill="#fff" stroke="#000" stroke-miterlimit="10" d="M93.195 92.045l-.01 1.19.01-1.12.09-11.96.01-1.19-12.52-7.55-.11 13.08 12.53 7.55z"/><path fill="#fff" stroke="#000" stroke-miterlimit="10" d="M93.185 93.235l.01-1.19-12.53-7.55-.11 14.27 12.16 7.33.36.22.11-13.08z"/><path fill="#33F28B" stroke="#000" stroke-miterlimit="10" d="M93.585 52.545c4.05 2.48 8.11 4.99 12.16 7.5 4.05 2.51 8.1 5.02 12.15 7.55 3.72 2.32 7.43 4.64 11.15 6.97 4.07 2.55 8.13 5.11 12.2 7.68.2.13.4.25.6.38v-16.28l-.17-.11-61.79-39.4v17.36c1.76 1.06 3.52 2.14 5.27 3.21 2.81 1.71 5.62 3.41 8.42 5.13l.01.01z"/><path fill="#fff" stroke="#000" stroke-miterlimit="10" d="M153.865 47.365c-.41-.01-3.48.54-3.88.65-1.92.49-3.86 1.09-5.45 2.26-2.14 1.57-3.46 4.08-3.97 6.69-.51 2.61.33 7.09.83 9.69-14.7-9.03-29.39-20.06-44.09-29.09-6.23-3.83-12.49-7.68-18.06-12.43-2.56-2.19-5.34-4.69-5.66-8.05-.32-3.36.77-6.76 2.71-9.52.92-1.31 2.05-2.5 3.48-3.22 1.43-.72 2.86-.54 4.38-.11 2.41.67 3.71 2.59 5.7 4.1 7.33 5.52 15.14 10.36 22.94 15.19 12.75 7.9 28.32 15.94 41.07 23.84z"/><path fill="#fff" d="M51.615 120.565c-3.54 0-6.88-1.15-9.4-3.25-4.2-3.47-6.47-9.33-6.76-17.42-.08-2.16-.04-4.37 0-6.51.08-4.36.17-8.86-.75-13.21l-.1-.48-.48.09c-.41.08-.83.12-1.25.12-1.57 0-3.1-.53-4.31-1.49-.2-.16-.39-.33-.58-.5-.53-.47-1.07-.95-1.76-1.23-.66-.27-1.34-.31-2.01-.35l-.37-.02c-2.84-.22-5.23-1.45-6.41-3.29-.69-1.09-.91-2.58-.56-3.88.28-1.06.91-1.89 1.76-2.33l1.02-.53-1.09-.38c-2.31-.82-4.07-3.09-4.26-5.54-.19-2.45 1.17-4.97 3.33-6.15l.7-.38-.65-.46c-1.93-1.37-2.11-5.72-.79-7.74 1.65-2.53 4.75-3.37 6.45-3.65 1.46-.24 2.95-.27 4.33-.27h2.29c.45.01.89 0 1.34 0h.69c.81 0 1.62.03 2.42.06.81.03 1.62.06 2.43.06 1.93 0 3.39-.19 4.75-.61.5-.16 1.03-.35 1.39-.8.47-.59.44-1.4.43-1.87l-.05-1.29c-.14-3.39-.29-6.89.86-10.03 1.07-2.91 3.89-5.85 7.23-5.85.33 0 .67.03 1 .09.48.09 1.65.4 2.09 1.33.2.41.23.91.25 1.39.14 3.42-.48 6.88-1.08 10.22-.54 2.99-1.09 6.07-1.12 9.17-.02 2.47.29 4.95.59 7.34.09.68.17 1.36.25 2.03 1.04 9.01.78 18.24.54 27.16v.46l.45.05c.22.02.55.04.94.04.88 0 2.33-.07 3.3-.22-.12 3.89-.4 7.79-.67 11.56-.63 8.87-1.29 18.04.12 27.18-1.98.91-4.2 1.39-6.46 1.39l-.04-.01z"/><path fill="#000" d="M51.425 21.865c.3 0 .61.03.9.08.84.16 1.49.55 1.73 1.05.16.33.19.77.2 1.2.14 3.36-.48 6.79-1.08 10.11-.54 3.01-1.1 6.11-1.13 9.25-.02 2.5.29 4.99.59 7.41.09.68.17 1.35.25 2.03 1.03 8.98.78 18.19.53 27.09l-.03.92.92.1c.24.03.57.04.99.04.75 0 1.85-.05 2.78-.15-.13 3.68-.39 7.37-.65 10.95-.63 8.78-1.28 17.85.07 26.92-1.83.78-3.85 1.19-5.91 1.19-3.42 0-6.65-1.11-9.09-3.13-4.08-3.38-6.3-9.11-6.58-17.05-.08-2.14-.04-4.35 0-6.48.08-4.38.17-8.92-.76-13.32l-.2-.96-.96.18a6.397 6.397 0 01-5.14-1.27c-.19-.15-.38-.32-.56-.48-.53-.47-1.13-1.01-1.91-1.32-.73-.3-1.49-.34-2.16-.39l-.37-.02c-2.68-.2-4.94-1.35-6.03-3.06-.62-.98-.81-2.31-.5-3.48.25-.92.78-1.64 1.5-2.02l2.04-1.06-2.17-.77c-2.13-.75-3.75-2.85-3.93-5.11-.18-2.26 1.08-4.59 3.07-5.67l1.41-.77-1.31-.93c-1.7-1.21-1.85-5.24-.66-7.06 1.55-2.37 4.49-3.16 6.11-3.43 1.43-.23 2.89-.26 4.25-.26h2.29c.45 0 .9 0 1.35-.02h.68c.8 0 1.61.03 2.4.06.8.03 1.63.06 2.44.06 1.98 0 3.49-.19 4.9-.63.55-.17 1.18-.4 1.63-.96.59-.74.55-1.66.53-2.21-.02-.43-.03-.86-.05-1.29-.14-3.34-.29-6.79.83-9.84 1.01-2.75 3.65-5.52 6.76-5.52m0-1c-3.4 0-6.49 2.89-7.7 6.18-1.33 3.64-.98 7.64-.84 11.51.02.54.02 1.12-.32 1.55-.28.35-.72.5-1.15.63-1.51.47-3.05.59-4.6.59-1.55 0-3.22-.13-4.85-.13h-.71c-.44.01-.89.01-1.33.01-.76 0-1.53-.01-2.29-.01-1.48 0-2.95.04-4.41.28-2.65.43-5.32 1.62-6.79 3.87-1.46 2.25-1.26 6.87.92 8.42-2.33 1.27-3.8 3.98-3.59 6.63.21 2.65 2.09 5.09 4.6 5.97-2.35 1.22-2.81 4.69-1.39 6.92 1.42 2.23 4.16 3.32 6.79 3.52.75.06 1.53.06 2.23.34.86.35 1.5 1.08 2.22 1.66 1.3 1.04 2.96 1.6 4.62 1.6.45 0 .9-.04 1.34-.13 1.35 6.42.5 13.08.73 19.63.24 6.56 1.89 13.6 6.95 17.78 2.71 2.24 6.21 3.36 9.72 3.36 2.42 0 4.84-.53 7.01-1.59-2.13-13.26.15-26.22.51-39.65-.7.21-2.57.34-3.82.34-.36 0-.67-.01-.88-.03.25-9.08.5-18.21-.54-27.23-.36-3.1-.86-6.19-.83-9.31.06-6.52 2.47-12.89 2.2-19.41-.02-.54-.07-1.1-.3-1.59-.44-.92-1.45-1.42-2.45-1.61-.36-.07-.73-.1-1.09-.1h.04z"/><path fill="#fff" d="M16.865 53.265c2.02 1.58 4.61 2.28 7.17 2.43 2.56.15 5.12-.22 7.65-.59 1.35-.2 2.84-.47 3.66-1.56.56-.74.68-1.72.71-2.64.04-1.3-.07-2.61-.32-3.89-.17-.87-.45-1.8-1.17-2.33-.67-.5-1.57-.53-2.41-.54-2.39-.03-4.79-.05-7.18-.08"/><path stroke="#000" stroke-miterlimit="10" d="M16.865 53.265c2.02 1.58 4.61 2.28 7.17 2.43 2.56.15 5.12-.22 7.65-.59 1.35-.2 2.84-.47 3.66-1.56.56-.74.68-1.72.71-2.64.04-1.3-.07-2.61-.32-3.89-.17-.87-.45-1.8-1.17-2.33-.67-.5-1.57-.53-2.41-.54-2.39-.03-4.79-.05-7.18-.08"/><path fill="#fff" d="M17.695 66.165l3.34.38c2.46.28 4.98.56 7.4.02s4.76-2.07 5.61-4.39c.86-2.36.04-5.01-1.2-7.19"/><path stroke="#000" stroke-miterlimit="10" d="M17.695 66.165l3.34.38c2.46.28 4.98.56 7.4.02s4.76-2.07 5.61-4.39c.86-2.36.04-5.01-1.2-7.19"/><path fill="#fff" d="M24.075 76.525c3.69.67 7.64-.23 10.68-2.45.75-.55 1.46-1.19 1.92-2 .53-.95.67-2.06.75-3.15.09-1.25.1-2.59-.54-3.66-.78-1.31-2.53-1.92-3.95-1.39"/><path stroke="#000" stroke-miterlimit="10" d="M24.075 76.525c3.69.67 7.64-.23 10.68-2.45.75-.55 1.46-1.19 1.92-2 .53-.95.67-2.06.75-3.15.09-1.25.1-2.59-.54-3.66-.78-1.31-2.53-1.92-3.95-1.39"/><path fill="#fff" d="M33.855 54.535c1.2 2.41 2.22 5.9 0 8.43 0 0 3.61 0 4.4 3.71.4 1.89 4.08 1.72 6.85 1.33"/><path stroke="#000" stroke-miterlimit="10" d="M33.855 54.535c1.2 2.41 2.22 5.9 0 8.43 0 0 3.61 0 4.4 3.71.4 1.89 4.08 1.72 6.85 1.33"/><path fill="#fff" stroke="#000" stroke-miterlimit="10" d="M45.885 83.365l49.47-22.99-.51 72.87-49.49 26.46.53-76.34z"/><path fill="#fff" stroke="#000" stroke-miterlimit="10" d="M54.745 88.785l48.57-22.57-.5 71.56-48.6 25.97.53-74.96z"/><path fill="#fff" stroke="#000" stroke-miterlimit="10" d="M62.875 93.625l47.49-22.07-.49 69.95-47.52 25.4.52-73.28z"/><path fill="#33F28B" stroke="#000" stroke-miterlimit="10" d="M72.285 97.525l-.06 8.98 32.58-15.5.06-8.76-32.58 15.28z"/><path fill="#0339F8" d="M71.815 114.075l-.05 6.55 33.19-16.41.05-6.14-33.19 16z"/><path stroke="#000" stroke-miterlimit="10" d="M76.835 125.705l25.24-13.36M76.385 133.285l25.24-13.36M75.995 140.025l25.23-13.36M75.545 147.605l25.23-13.36"/></g><defs><clipPath id="clip0_605_62413"><path fill="#fff" d="M0 0h168.37v174.27H0z" transform="translate(.815 .865)"/></clipPath></defs></svg></g></svg>